<svg xmlns="http://www.w3.org/2000/svg" width="36" height="36" viewBox="0 0 36 36" fill="none">
  <path d="M18 14.6997V29.9997M18 14.6997C18 12.1795 18 10.9199 18.4905 9.95728C18.9219 9.11055 19.6098 8.4219 20.4565 7.99047C21.4191 7.5 22.6795 7.5 25.1997 7.5H29.0997C29.9398 7.5 30.3601 7.5 30.681 7.66349C30.9632 7.8073 31.1921 8.0366 31.3359 8.31885C31.4994 8.63972 31.5 9.06007 31.5 9.90015V23.1001C31.5 23.9402 31.4994 24.3597 31.3359 24.6805C31.1921 24.9628 30.9637 25.1929 30.6815 25.3367C30.3609 25.5 29.9415 25.5 29.103 25.5H24.854C23.4452 25.5 22.7395 25.5 22.1001 25.6942C21.534 25.8661 21.0085 26.1476 20.5515 26.5232C20.0352 26.9475 19.644 27.5336 18.8626 28.7058L18 29.9997M18 14.6997C18 12.1795 17.9997 10.9199 17.5093 9.95728C17.0778 9.11055 16.3894 8.4219 15.5427 7.99047C14.5801 7.5 13.3197 7.5 10.7994 7.5H6.89941C6.05934 7.5 5.63972 7.5 5.31885 7.66349C5.0366 7.8073 4.8073 8.0366 4.66349 8.31885C4.5 8.63972 4.5 9.06007 4.5 9.90015V23.1001C4.5 23.9402 4.5 24.3597 4.66349 24.6805C4.8073 24.9628 5.0366 25.1929 5.31885 25.3367C5.6394 25.5 6.05851 25.5 6.89695 25.5H11.1461C12.5549 25.5 13.2591 25.5 13.8985 25.6942C14.4646 25.8661 14.9927 26.1476 15.4497 26.5232C15.9639 26.9458 16.3526 27.5289 17.1277 28.6916L18 29.9997" stroke="black" stroke-width="2" stroke-linecap="round" stroke-linejoin="round"/>
</svg>
