<svg xmlns="http://www.w3.org/2000/svg" width="36" height="36" viewBox="0 0 36 36" fill="none">
  <path d="M6 12V25.2C6 26.8802 6 27.7197 6.32698 28.3614C6.6146 28.9259 7.07321 29.3857 7.6377 29.6733C8.2788 30 9.11849 30 10.7954 30H25.2046C26.8815 30 27.72 30 28.3611 29.6733C28.9256 29.3857 29.3857 28.9259 29.6733 28.3614C30 27.7203 30 26.8815 30 25.2046V12M6 12H30M6 12L8.04777 8.41634C8.5503 7.5369 8.80152 7.09726 9.15488 6.7771C9.46776 6.4936 9.83788 6.27908 10.2393 6.14807C10.6929 6 11.1993 6 12.2139 6H23.7856C24.8002 6 25.3084 6 25.7621 6.14807C26.1635 6.27908 26.5318 6.4936 26.8447 6.7771C27.1984 7.09752 27.4503 7.53761 27.9536 8.41846L30 12M18 16.5V25.5M18 25.5L22.5 22.5M18 25.5L13.5 22.5" stroke="black" stroke-width="2" stroke-linecap="round" stroke-linejoin="round"/>
</svg>
